<svg id="Слой_1" data-name="Слой 1" xmlns="http://www.w3.org/2000/svg" viewBox="0 0 1000 1000"><defs><style>.cls-1{fill:#010101;}.cls-2{fill:#fff;}</style></defs><path class="cls-1" d="M929.77,70.3C859.47,0,746.3,0,520,0H480C253.7,0,140.53,0,70.23,70.3S-.07,253.77-.07,480.07v40c0,226.3,0,339.47,70.3,409.77s183.47,70.3,409.77,70.3h40c226.3,0,339.47,0,409.77-70.3s70.3-183.47,70.3-409.77v-40C1000.07,253.77,1000.07,140.6,929.77,70.3Z"/><path class="cls-2" d="M745.05,274.26a56.44,56.44,0,0,1,33.86,101.58L523.07,567.72a37.74,37.74,0,0,1-45.14,0L222.09,375.84A56.44,56.44,0,0,1,256,274.26ZM455.35,597.82a75.15,75.15,0,0,0,90.3,0L801.48,405.94V650.49a75.32,75.32,0,0,1-75.24,75.25H274.76a75.28,75.28,0,0,1-75.24-75.25V405.94Z"/></svg>