<svg id="Слой_1" data-name="Слой 1" xmlns="http://www.w3.org/2000/svg" viewBox="0 0 1000 1000"><defs><style>.cls-1{fill:#010101;}.cls-2{fill:#fff;}</style></defs><path class="cls-1" d="M929.77,70.3C859.47,0,746.3,0,520,0H480C253.7,0,140.53,0,70.23,70.3S-.07,253.77-.07,480.07v40c0,226.3,0,339.47,70.3,409.77s183.47,70.3,409.77,70.3h40c226.3,0,339.47,0,409.77-70.3s70.3-183.47,70.3-409.77v-40C1000.07,253.77,1000.07,140.6,929.77,70.3Z"/><path class="cls-2" d="M649.23,999.27c-23.89,4.3-32.54-10.49-32.54-22.67,0-15.35.56-93.45.56-156.56,0-44-14.67-72.1-32-86.89,105.13-11.8,215.91-26.22,215.91-206.94,0-51.32-18.43-77.16-48.52-110.31,4.89-12.17,20.87-62.17-4.89-127.16C708.47,276.38,618,339.31,618,339.31a446.09,446.09,0,0,0-236.22,0S291.32,276.57,252,288.74c-25.77,64.8-9.78,115-4.89,127.16-30.09,33-44.39,58.81-44.39,110.31,0,180.16,106.08,195.33,211.21,206.94-13.54,12.36-25.76,33.14-30.09,63.11-26.89,12.36-95.92,33.15-137.11-39.14C221,712.55,174.15,708.8,174.15,708.8c-46.08-.56-3,28.84-3,28.84,30.84,14.05,52.28,68.54,52.28,68.54,27.65,83.9,159.3,55.81,159.3,55.81,0,39.33.57,103.38.57,115,0,12.17-8.47,27-32.54,22.66m20.31-173.23c-5.64,1.31-10.53-1.12-11.1-4.87-.56-4.31,3.2-7.87,8.66-9.18,5.45-.56,10.53,1.88,11.09,5.44C380.28,821.54,376.52,825.1,371.06,826.41ZM344,824c0,3.74-4.33,6.74-9.78,6.74-6.21.56-10.53-2.44-10.53-6.74,0-3.75,4.32-6.75,9.78-6.75C339.09,816.67,344,819.67,344,824Zm-38.75-3c-1.12,3.74-6.77,5.62-11.66,3.74-5.64-1.12-9.4-5.43-8.08-9.17s6.77-5.62,11.66-4.31C302.79,812.93,306.36,817.23,305.23,821Zm-35.17-15.36c-2.44,3-7.89,2.44-12.22-1.87-4.33-3.56-5.45-9.18-2.45-11.61,2.45-3,8.09-2.44,12.23,1.87C271.38,797.57,272.51,803.19,270.06,805.62ZM244.49,780c-2.45,1.87-7.53,0-10.54-4.31s-3-9.18,0-11c3-2.44,7.9-.56,10.54,3.74C247.5,772.66,247.5,777.53,244.49,780Zm-18.62-27.72c-2.45,2.43-6.77,1.12-9.78-1.87-3.2-3.56-3.76-7.87-1.32-9.74,2.45-2.44,6.77-1.13,9.78,1.87C227.75,746.07,228.31,750.38,225.87,752.25Zm-19-20.79c-1.32,2.62-5.08,3.18-8.09,1.31-3.76-1.87-5.64-4.87-4.32-7.3,1.31-1.87,4.32-2.44,8.09-1.31C206.31,726,208.19,729,206.87,731.46Z"/></svg>