<svg id="Слой_1" data-name="Слой 1" xmlns="http://www.w3.org/2000/svg" viewBox="0 0 1000 1000"><defs><style>.cls-1{fill:#010101;}.cls-2{fill:#fff;}</style></defs><path class="cls-1" d="M929.77,70.3C859.47,0,746.3,0,520,0H480C253.7,0,140.53,0,70.23,70.3S-.07,253.77-.07,480.07v40c0,226.3,0,339.47,70.3,409.77s183.47,70.3,409.77,70.3h40c226.3,0,339.47,0,409.77-70.3s70.3-183.47,70.3-409.77v-40C1000.07,253.77,1000.07,140.6,929.77,70.3Z"/><path class="cls-2" d="M504.5,246.13A258.58,258.58,0,1,0,763.08,504.71,258.17,258.17,0,0,0,504.5,246.13Zm0,426.69c-92.49,0-168.11-75.39-168.11-168.11S411.78,336.6,504.5,336.6,672.61,412,672.61,504.71,597,672.82,504.5,672.82ZM834,235.55a60.32,60.32,0,1,1-60.31-60.31A60.17,60.17,0,0,1,834,235.55Z"/></svg>