<svg id="Слой_1" data-name="Слой 1" xmlns="http://www.w3.org/2000/svg" viewBox="0 0 1000 1000"><defs><style>.cls-1{fill:#010101;}.cls-2{fill:#fffefe;}</style></defs><path class="cls-1" d="M929.77,70.3C859.47,0,746.3,0,520,0H480C253.7,0,140.53,0,70.23,70.3S-.07,253.77-.07,480.07v40c0,226.3,0,339.47,70.3,409.77s183.47,70.3,409.77,70.3h40c226.3,0,339.47,0,409.77-70.3s70.3-183.47,70.3-409.77v-40C1000.07,253.77,1000.07,140.6,929.77,70.3Z"/><path class="cls-2" d="M797.58,653.46,770.52,770.79A36.17,36.17,0,0,1,735.06,799C441.4,799,202.54,560.11,202.54,266.43A36.15,36.15,0,0,1,230.74,231l117.33-27.07A36.54,36.54,0,0,1,389.72,225l54.14,126.3a36.44,36.44,0,0,1-10.45,42.43l-62.67,50.32A406.94,406.94,0,0,0,556.4,629.71l51.31-62.62a36.21,36.21,0,0,1,42.45-10.45l126.29,54.14C791.64,618.77,801.54,636.47,797.58,653.46Z"/></svg>