<?xml version="1.0" encoding="utf-8"?>
<!-- Generator: Adobe Illustrator 26.2.1, SVG Export Plug-In . SVG Version: 6.00 Build 0)  -->
<svg version="1.1" id="Слой_1" xmlns="http://www.w3.org/2000/svg" xmlns:xlink="http://www.w3.org/1999/xlink" x="0px" y="0px"
	 viewBox="0 0 1000 1000" style="enable-background:new 0 0 1000 1000;" xml:space="preserve">
<style type="text/css">
	.st0{fill:#010101;}
</style>
<path class="st0" d="M929.8,70.3C859.5,0,746.3,0,520,0h-40C253.7,0,140.5,0,70.2,70.3S-0.1,253.8-0.1,480.1v40
	c0,226.3,0,339.5,70.3,409.8s183.5,70.3,409.8,70.3h40c226.3,0,339.5,0,409.8-70.3s70.3-183.5,70.3-409.8v-40
	C1000.1,253.8,1000.1,140.6,929.8,70.3z M732.8,342.7c-7.5,78.7-39.9,269.8-56.4,358c-7,37.3-20.7,49.8-34,51.1
	c-28.9,2.7-50.9-19.1-78.9-37.5c-43.8-28.7-68.6-46.6-111.1-74.6c-49.2-32.4-17.3-50.2,10.7-79.3c7.3-7.6,134.7-123.5,137.2-134
	c0.3-1.3,0.6-6.2-2.3-8.8c-2.9-2.6-7.2-1.7-10.3-1c-4.4,1-74.4,47.3-210,138.8c-19.9,13.6-37.9,20.3-54,19.9
	c-17.8-0.4-52-10.1-77.4-18.3c-31.2-10.1-56-15.5-53.8-32.7c1.1-9,13.5-18.1,37-27.5c145.2-63.2,242-104.9,290.4-125.1
	c138.3-57.5,167-67.5,185.8-67.8c4.1-0.1,13.3,1,19.3,5.8c4,3.4,6.5,8.3,7.1,13.5C733,329.6,733.2,336.2,732.8,342.7z"/>
</svg>
