<svg id="Слой_1" data-name="Слой 1" xmlns="http://www.w3.org/2000/svg" viewBox="0 0 1000 1000"><defs><style>.cls-1{fill:#010101;}.cls-2{fill:#fff;}</style></defs><path class="cls-1" d="M929.77,70.3C859.47,0,746.3,0,520,0H480C253.7,0,140.53,0,70.23,70.3S-.07,253.77-.07,480.07v40c0,226.3,0,339.47,70.3,409.77s183.47,70.3,409.77,70.3h40c226.3,0,339.47,0,409.77-70.3s70.3-183.47,70.3-409.77v-40C1000.07,253.77,1000.07,140.6,929.77,70.3Z"/><path class="cls-2" d="M198.7,311.18H306.11c3.53,179.53,82.71,255.58,145.43,271.26V311.18H552.68V466c61.94-6.66,127-77.22,149-154.84H802.78A298.87,298.87,0,0,1,665.18,506.4,309.45,309.45,0,0,1,826.3,702.79H715A193.54,193.54,0,0,0,552.68,562.84V702.79H540.53C326.11,702.79,203.8,555.79,198.7,311.18Z"/></svg>